<?xml version="1.0" encoding="UTF-8" standalone="no"?>
<!-- Created with Inkscape (http://www.inkscape.org/) -->

<svg
   version="1.1"
   id="svg1"
   width="3179.8533"
   height="4679.5332"
   viewBox="0 0 3179.8533 4679.5332"
   sodipodi:docname="cover_nova.svg"
   inkscape:version="1.4 (e7c3feb100, 2024-10-09)"
   inkscape:export-filename="cover_nova.png"
   inkscape:export-xdpi="96"
   inkscape:export-ydpi="96"
   xmlns:inkscape="http://www.inkscape.org/namespaces/inkscape"
   xmlns:sodipodi="http://sodipodi.sourceforge.net/DTD/sodipodi-0.dtd"
   xmlns="http://www.w3.org/2000/svg"
   xmlns:svg="http://www.w3.org/2000/svg">
  <defs
     id="defs1" />
  <sodipodi:namedview
     id="namedview1"
     pagecolor="#ffffff"
     bordercolor="#000000"
     borderopacity="0.25"
     inkscape:showpageshadow="2"
     inkscape:pageopacity="0.0"
     inkscape:pagecheckerboard="0"
     inkscape:deskcolor="#d1d1d1"
     inkscape:zoom="0.24569879"
     inkscape:cx="388.6873"
     inkscape:cy="1109.0816"
     inkscape:window-width="1920"
     inkscape:window-height="1024"
     inkscape:window-x="0"
     inkscape:window-y="25"
     inkscape:window-maximized="1"
     inkscape:current-layer="g1"
     showgrid="true">
    <inkscape:page
       x="0"
       y="0"
       inkscape:label="1"
       id="page1"
       width="3179.8533"
       height="4679.5332"
       margin="0"
       bleed="0" />
    <inkscape:grid
       id="grid125"
       units="px"
       originx="0"
       originy="0"
       spacingx="1"
       spacingy="1"
       empcolor="#0099e5"
       empopacity="0.30196078"
       color="#0099e5"
       opacity="0.14901961"
       empspacing="5"
       enabled="true"
       visible="true" />
  </sodipodi:namedview>
  <g
     id="g1"
     inkscape:groupmode="layer"
     inkscape:label="1">
    <path
       id="path2"
       d="M 2944.6399,2352.2 H 217.65866 V 265.74674 H 2944.6399 Z M 2906.1066,158.42675 H 282.01333 c -83.272,0 -151.01493,67.74666 -151.01493,151.01333 V 2324 c 0,83.2667 67.74293,151.0134 151.01493,151.0134 H 2906.1066 c 83.2667,0 151.0133,-67.7467 151.0133,-151.0134 V 309.44008 c 0,-83.26667 -67.7466,-151.01333 -151.0133,-151.01333"
       style="fill:#3a3a3a;fill-opacity:1;fill-rule:nonzero;stroke:none;stroke-width:0.133333" />
    <path
       id="path4"
       d="m 3091.0767,2324.1456 c 0,101.8667 -82.88,184.7467 -184.7467,184.7467 H 282.23673 c -101.8667,0 -184.742505,-82.88 -184.742505,-184.7467 V 309.58568 c 0,-101.86667 82.875805,-184.74667 184.742505,-184.74667 H 2906.33 c 101.8667,0 184.7467,82.88 184.7467,184.74667 z M 2933.4767,33.879017 H 246.82473 c -117.3795,0 -212.874305,95.493333 -212.874305,212.866663 V 4433.0789 c 0,117.3864 95.494805,212.8803 212.874305,212.8803 H 2933.4767 c 117.3866,0 212.88,-95.4939 212.88,-212.8803 V 246.74568 c 0,-117.37333 -95.4934,-212.866663 -212.88,-212.866663"
       style="fill:#b7b7b7;fill-opacity:1;fill-rule:nonzero;stroke:none;stroke-width:0.133333" />
    <path
       id="path5"
       d="m 3146.1333,4432.9333 c 0,117.3864 -95.4934,212.8803 -212.88,212.8803 H 246.60133 c -117.37947,0 -212.874264,-95.4939 -212.874264,-212.8803 V 246.60008 c 0,-117.37333 95.494794,-212.866664 212.874264,-212.866664 H 2933.2533 c 117.3866,0 212.88,95.493334 212.88,212.866664 z M 2933.2533,8.3655e-5 H 246.60133 C 110.62546,8.3655e-5 0,110.62675 0,246.60008 V 4432.9333 c 0,135.9735 110.62546,246.6 246.60133,246.6 H 2933.2533 c 135.9733,0 246.6,-110.6265 246.6,-246.6 V 246.60008 c 0,-135.97333 -110.6267,-246.599996345 -246.6,-246.599996345"
       style="fill:#000000;fill-opacity:1;fill-rule:nonzero;stroke:none;stroke-width:0.133333" />
    <path
       id="path6"
       d="m 3057.1199,2324 c 0,83.2667 -67.7466,151.0134 -151.0133,151.0134 H 282.01333 c -83.272,0 -151.01493,-67.7467 -151.01493,-151.0134 V 309.44008 c 0,-83.26667 67.74293,-151.01333 151.01493,-151.01333 H 2906.1066 c 83.2667,0 151.0133,67.74666 151.0133,151.01333 z M 2906.1066,124.69341 H 282.01333 c -101.86667,0 -184.742532,82.88 -184.742532,184.74667 V 2324 c 0,101.8667 82.875862,184.7467 184.742532,184.7467 H 2906.1066 c 101.8667,0 184.7467,-82.88 184.7467,-184.7467 V 309.44008 c 0,-101.86667 -82.88,-184.74667 -184.7467,-184.74667"
       style="fill:#000000;fill-opacity:1;fill-rule:nonzero;stroke:none;stroke-width:0.133333" />
    <path
       id="path7"
       d="M 237.89466,285.98674 H 2924.3999 V 2331.96 H 237.89466 Z M 217.65866,2352.2 H 2944.6399 V 265.74674 H 217.65866 V 2352.2"
       style="fill:#000000;fill-opacity:1;fill-rule:nonzero;stroke:none;stroke-width:0.133333;opacity:0" />
    <path
       id="path73"
       d="m 1902.7227,4359.4972 h -805.0919 v -77.228 h 805.0919 v 77.228"
       style="fill:#000000;fill-opacity:1;fill-rule:nonzero;stroke:none;stroke-width:0.0992265" />
    <path
       id="path74"
       d="m 1826.5299,4471.3523 h -652.7032 v -63.9158 h 652.7032 v 63.9158"
       style="fill:#000000;fill-opacity:1;fill-rule:nonzero;stroke:none;stroke-width:0.0992265" />
    <path
       id="path75"
       d="m 1659.7615,4569.8952 h -319.1643 v -61.2515 h 319.1643 v 61.2515"
       style="fill:#000000;fill-opacity:1;fill-rule:nonzero;stroke:none;stroke-width:0.0992265" />
  </g>
</svg>
